<svg width="393" height="393" viewBox="0 0 393 393" fill="none" xmlns="http://www.w3.org/2000/svg">
<g clip-path="url(#clip0_3_15)">
<path d="M196.5 393C274.356 393 337.471 305.024 337.471 196.5C337.471 87.9761 274.356 0 196.5 0C118.644 0 55.5291 87.9761 55.5291 196.5C55.5291 305.024 118.644 393 196.5 393Z" fill="#00416C"/>
<path d="M0 196.5C0 305.024 63.1149 393 140.971 393H196.5C118.644 393 55.5291 305.024 55.5291 196.5C55.5291 87.9761 118.644 0 196.5 0H140.971C63.1149 0 0 87.9761 0 196.5Z" fill="#485AFF"/>
<path d="M252.029 393C329.885 393 393 305.024 393 196.5C393 87.9761 329.885 0 252.029 0H196.5C274.356 0 337.471 87.9761 337.471 196.5C337.471 305.024 274.356 393 196.5 393H252.029Z" fill="#2AE66C"/>
<path d="M212.831 324.218C207.773 324.218 202.601 323.528 197.313 322.149C192.256 320.769 187.543 318.585 183.175 315.597C179.037 312.608 175.473 308.93 172.485 304.562C169.726 300.194 167.427 295.596 165.588 290.768C163.979 285.71 162.829 280.653 162.139 275.595C161.45 270.307 161.105 265.02 161.105 259.732V166.28H128V142.141H161.105V68H188.003V142.141H248.695V166.28H188.003V259.732C188.003 262.721 188.117 265.709 188.347 268.698C188.577 271.687 189.037 274.675 189.727 277.664C190.416 280.423 191.336 283.181 192.485 285.94C193.635 288.469 195.129 290.883 196.968 293.182C199.037 295.481 201.451 297.205 204.21 298.355C206.969 299.504 209.843 300.079 212.831 300.079C215.82 300.079 218.579 299.504 221.107 298.355C223.866 297.205 226.165 295.596 228.004 293.527C230.073 291.458 231.683 289.159 232.832 286.63C234.211 283.871 235.246 281.112 235.936 278.354C236.625 275.595 237.085 272.836 237.315 270.077C237.775 267.089 238.005 264.215 238.005 261.456V259.387H264.902V262.491C264.902 267.549 264.443 272.606 263.523 277.664C262.603 282.722 261.224 287.664 259.385 292.492C257.776 297.09 255.477 301.458 252.488 305.596C249.499 309.734 245.936 313.298 241.798 316.286C237.66 319.045 233.062 320.999 228.004 322.149C222.947 323.528 217.889 324.218 212.831 324.218Z" fill="white"/>
</g>
<defs>
<clipPath id="clip0_3_15">
<rect width="393" height="393" fill="white"/>
</clipPath>
</defs>
</svg>
