<svg width="1023" height="393" viewBox="0 0 1023 393" fill="none" xmlns="http://www.w3.org/2000/svg">
<path d="M647.471 196.5C647.471 305.024 584.356 393 506.5 393H882.029C959.885 393 1023 305.024 1023 196.5C1023 87.9761 959.885 0 882.029 0L506.5 0C584.356 0 647.471 87.9761 647.471 196.5Z" fill="#2AE66C"/>
<path d="M506.5 393C584.356 393 647.471 305.024 647.471 196.5C647.471 87.9761 584.356 0 506.5 0C428.644 0 365.529 87.9761 365.529 196.5C365.529 305.024 428.644 393 506.5 393Z" fill="#00416C"/>
<path d="M506.5 0H140.971C63.1149 0 0 87.9761 0 196.5C0 305.024 63.1149 393 140.971 393H506.5C428.644 393 365.529 305.024 365.529 196.5C365.529 87.9761 428.644 0 506.5 0Z" fill="#485AFF"/>
<path d="M79 287.147V107.829H105.898V140.589C107.737 135.532 110.036 130.704 112.795 126.106C115.783 121.508 119.347 117.6 123.485 114.381C127.853 111.163 132.68 108.864 137.968 107.484C143.256 105.875 148.543 105.071 153.831 105.071C159.578 105.071 165.096 105.875 170.383 107.484C175.901 109.094 180.843 111.738 185.211 115.416C189.579 119.094 193.143 123.347 195.901 128.175C198.89 133.003 201.189 138.175 202.798 143.693C204.637 148.98 205.787 154.498 206.247 160.245C206.936 165.763 207.281 171.28 207.281 176.798V287.147H180.384V176.798C180.384 172.889 180.154 169.096 179.694 165.418C179.234 161.51 178.429 157.831 177.28 154.383C176.131 150.705 174.406 147.256 172.107 144.038C170.038 140.819 167.509 138.06 164.521 135.762C161.532 133.463 158.199 131.853 154.52 130.934C150.842 129.784 147.049 129.209 143.141 129.209C139.232 129.209 135.439 129.784 131.761 130.934C128.083 131.853 124.749 133.463 121.76 135.762C118.772 138.06 116.128 140.819 113.829 144.038C111.76 147.256 110.151 150.705 109.001 154.383C107.852 157.831 107.047 161.51 106.587 165.418C106.128 169.096 105.898 172.889 105.898 176.798V287.147H79Z" fill="white"/>
<path d="M327.181 288.527C320.973 288.527 314.766 287.837 308.559 286.457C302.582 285.308 296.835 283.239 291.317 280.25C286.029 277.262 281.202 273.468 276.834 268.871C272.696 264.043 269.362 258.87 266.833 253.353C264.304 247.605 262.58 241.628 261.661 235.421C260.741 229.214 260.281 223.007 260.281 216.799V175.418C260.281 169.211 260.741 163.004 261.661 156.797C262.58 150.59 264.304 144.727 266.833 139.21C269.592 133.463 273.04 128.29 277.179 123.692C281.317 118.864 286.029 114.956 291.317 111.967C296.835 108.749 302.697 106.565 308.904 105.415C315.111 104.266 321.318 103.691 327.525 103.691C332.813 103.691 338.216 104.036 343.733 104.726C349.251 105.415 354.538 106.795 359.596 108.864C364.653 110.703 369.366 113.232 373.734 116.45C378.332 119.669 382.125 123.577 385.114 128.175C388.333 132.543 390.632 137.486 392.011 143.003C393.39 148.291 394.08 153.693 394.08 159.211C394.08 164.728 393.39 170.131 392.011 175.418C390.632 180.706 388.218 185.534 384.769 189.902C381.551 194.27 377.528 197.948 372.7 200.937C368.102 203.925 363.159 206.339 357.872 208.178C352.814 210.017 347.526 211.282 342.009 211.972C336.721 212.431 331.319 212.661 325.801 212.661H287.179V216.799C287.179 220.708 287.409 224.616 287.869 228.524C288.328 232.432 289.248 236.225 290.627 239.904C292.007 243.582 293.846 247.031 296.145 250.249C298.674 253.468 301.547 256.226 304.766 258.525C307.984 260.594 311.548 262.089 315.456 263.008C319.364 263.928 323.272 264.388 327.181 264.388C331.779 264.388 336.261 264.043 340.629 263.353C345.227 262.433 349.48 260.824 353.389 258.525C357.297 255.996 360.4 252.778 362.699 248.87C365.228 244.732 366.493 240.364 366.493 235.766H393.39C393.39 241.053 392.471 246.226 390.632 251.284C389.022 256.341 386.608 261.054 383.39 265.422C380.401 269.56 376.723 273.239 372.355 276.457C367.987 279.446 363.274 281.86 358.216 283.699C353.389 285.538 348.331 286.802 343.043 287.492C337.756 288.182 332.468 288.527 327.181 288.527ZM287.179 188.522H325.801C329.02 188.522 332.238 188.407 335.457 188.177C338.675 187.718 341.779 187.143 344.768 186.453C347.756 185.534 350.63 184.269 353.389 182.66C356.377 181.051 358.906 179.097 360.975 176.798C363.274 174.269 364.883 171.51 365.803 168.521C366.723 165.303 367.182 162.084 367.182 158.866C367.182 154.268 366.033 149.785 363.734 145.417C361.665 140.819 358.676 137.256 354.768 134.727C350.86 131.968 346.492 130.129 341.664 129.209C336.836 128.29 332.123 127.83 327.525 127.83C323.617 127.83 319.709 128.29 315.801 129.209C311.893 130.129 308.214 131.738 304.766 134.037C301.547 136.106 298.674 138.75 296.145 141.969C293.846 145.187 292.007 148.636 290.627 152.314C289.248 155.992 288.328 159.785 287.869 163.694C287.409 167.602 287.179 171.51 287.179 175.418V188.522Z" fill="white"/>
<path d="M531.911 324.218C526.854 324.218 521.681 323.528 516.393 322.149C511.336 320.769 506.623 318.585 502.255 315.597C498.117 312.608 494.553 308.93 491.565 304.562C488.806 300.194 486.507 295.596 484.668 290.768C483.059 285.71 481.909 280.653 481.219 275.595C480.53 270.307 480.185 265.02 480.185 259.732V166.28H447.08V142.141H480.185V68H507.083V142.141H567.775V166.28H507.083V259.732C507.083 262.721 507.198 265.709 507.427 268.698C507.657 271.687 508.117 274.675 508.807 277.664C509.497 280.423 510.416 283.181 511.566 285.94C512.715 288.469 514.209 290.883 516.048 293.182C518.118 295.481 520.531 297.205 523.29 298.355C526.049 299.504 528.923 300.079 531.911 300.079C534.9 300.079 537.659 299.504 540.187 298.355C542.946 297.205 545.245 295.596 547.084 293.527C549.153 291.458 550.763 289.159 551.912 286.63C553.291 283.871 554.326 281.112 555.016 278.354C555.705 275.595 556.165 272.836 556.395 270.077C556.855 267.089 557.085 264.215 557.085 261.456V259.387H583.982V262.491C583.982 267.549 583.523 272.606 582.603 277.664C581.683 282.722 580.304 287.664 578.465 292.492C576.856 297.09 574.557 301.458 571.568 305.596C568.579 309.734 565.016 313.298 560.878 316.286C556.74 319.045 552.142 320.999 547.084 322.149C542.027 323.528 536.969 324.218 531.911 324.218Z" fill="white"/>
<path d="M703.882 288.527C697.674 288.527 691.467 287.837 685.26 286.457C679.283 285.308 673.536 283.239 668.018 280.25C662.73 277.262 657.903 273.468 653.535 268.871C649.397 264.043 646.063 258.87 643.534 253.353C641.005 247.605 639.281 241.628 638.362 235.421C637.442 229.214 636.982 223.007 636.982 216.799V175.418C636.982 169.211 637.442 163.004 638.362 156.797C639.281 150.59 641.005 144.727 643.534 139.21C646.063 133.463 649.397 128.29 653.535 123.692C657.903 118.864 662.73 114.956 668.018 111.967C673.536 108.979 679.283 106.91 685.26 105.76C691.467 104.381 697.674 103.691 703.882 103.691C710.089 103.691 716.181 104.381 722.158 105.76C728.365 106.91 734.113 108.979 739.4 111.967C744.918 114.956 749.746 118.864 753.884 123.692C758.252 128.29 761.7 133.463 764.229 139.21C766.758 144.727 768.482 150.59 769.402 156.797C770.321 163.004 770.781 169.211 770.781 175.418V216.799C770.781 223.007 770.321 229.214 769.402 235.421C768.482 241.628 766.758 247.605 764.229 253.353C761.7 258.87 758.252 264.043 753.884 268.871C749.746 273.468 744.918 277.262 739.4 280.25C734.113 283.239 728.365 285.308 722.158 286.457C716.181 287.837 710.089 288.527 703.882 288.527ZM703.882 264.388C707.79 264.388 711.698 263.928 715.606 263.008C719.515 262.089 723.078 260.594 726.296 258.525C729.515 256.226 732.274 253.468 734.573 250.249C737.101 247.031 739.056 243.582 740.435 239.904C741.814 236.225 742.734 232.432 743.194 228.524C743.653 224.616 743.883 220.708 743.883 216.799V175.418C743.883 171.51 743.653 167.602 743.194 163.694C742.734 159.785 741.814 155.992 740.435 152.314C739.056 148.636 737.101 145.187 734.573 141.969C732.274 138.75 729.515 136.106 726.296 134.037C723.078 131.738 719.515 130.129 715.606 129.209C711.698 128.29 707.79 127.83 703.882 127.83C699.973 127.83 696.065 128.29 692.157 129.209C688.249 130.129 684.685 131.738 681.467 134.037C678.248 136.106 675.375 138.75 672.846 141.969C670.547 145.187 668.708 148.636 667.328 152.314C665.949 155.992 665.029 159.785 664.57 163.694C664.11 167.602 663.88 171.51 663.88 175.418V216.799C663.88 220.708 664.11 224.616 664.57 228.524C665.029 232.432 665.949 236.225 667.328 239.904C668.708 243.582 670.547 247.031 672.846 250.249C675.375 253.468 678.248 256.226 681.467 258.525C684.685 260.594 688.249 262.089 692.157 263.008C696.065 263.928 699.973 264.388 703.882 264.388Z" fill="white"/>
<path d="M823.781 324.218V70.7587H850.679V103.864C852.518 98.576 854.932 93.6333 857.92 89.0354C861.139 84.4375 864.932 80.5292 869.3 77.3107C873.668 74.0922 878.496 71.7932 883.784 70.4139C889.071 68.8046 894.474 68 899.991 68C905.739 68 911.371 68.8046 916.888 70.4139C922.406 72.0231 927.349 74.667 931.717 78.3453C936.315 81.7937 940.108 85.9318 943.096 90.7596C946.085 95.5874 948.499 100.76 950.338 106.277C952.177 111.565 953.327 117.083 953.786 122.83C954.476 128.347 954.821 133.98 954.821 139.727V181.108C954.821 186.856 954.476 192.603 953.786 198.35C953.327 203.868 952.177 209.385 950.338 214.903C948.499 220.19 946.085 225.248 943.096 230.076C940.108 234.904 936.315 239.157 931.717 242.835C927.349 246.283 922.406 248.812 916.888 250.421C911.371 252.031 905.739 252.835 899.991 252.835C894.474 252.835 889.071 252.031 883.784 250.421C878.496 249.042 873.668 246.743 869.3 243.525C864.932 240.306 861.139 236.398 857.92 231.8C854.932 227.202 852.518 222.259 850.679 216.972V324.218H823.781ZM889.301 228.696C893.209 228.696 897.002 228.237 900.681 227.317C904.589 226.397 908.037 224.788 911.026 222.489C914.245 220.19 917.003 217.432 919.302 214.213C921.601 210.995 923.325 207.546 924.475 203.868C925.854 200.189 926.774 196.511 927.234 192.833C927.693 188.925 927.923 185.016 927.923 181.108V139.727C927.923 135.819 927.693 132.026 927.234 128.347C926.774 124.439 925.854 120.646 924.475 116.968C923.325 113.289 921.601 109.841 919.302 106.622C917.003 103.404 914.245 100.645 911.026 98.3461C908.037 96.0472 904.589 94.4379 900.681 93.5183C897.002 92.5987 893.209 92.1389 889.301 92.1389C885.393 92.1389 881.485 92.5987 877.576 93.5183C873.898 94.4379 870.45 96.0472 867.231 98.3461C864.243 100.645 861.599 103.404 859.3 106.622C857.001 109.841 855.162 113.289 853.782 116.968C852.633 120.646 851.828 124.439 851.368 128.347C850.909 132.026 850.679 135.819 850.679 139.727V181.108C850.679 185.016 850.909 188.925 851.368 192.833C851.828 196.511 852.633 200.189 853.782 203.868C855.162 207.546 857.001 210.995 859.3 214.213C861.599 217.432 864.243 220.19 867.231 222.489C870.45 224.788 873.898 226.397 877.576 227.317C881.485 228.237 885.393 228.696 889.301 228.696Z" fill="white"/>
</svg>
